<mxfile host="app.diagrams.net" modified="2020-04-15T05:13:06.626Z" agent="5.0 (Windows NT 6.1; Win64; x64) AppleWebKit/537.36 (KHTML, like Gecko) Chrome/80.0.3987.163 Safari/537.36" etag="N8_cTFLQ-GRoJ2s5-zzd" version="12.9.12" type="github">
  <diagram name="Page-1" id="03018318-947c-dd8e-b7a3-06fadd420f32">
    <mxGraphModel dx="868" dy="433" grid="1" gridSize="10" guides="1" tooltips="1" connect="0" arrows="1" fold="1" page="1" pageScale="1" pageWidth="1100" pageHeight="850" background="#ffffff" math="0" shadow="0">
      <root>
        <mxCell id="0" />
        <mxCell id="1" parent="0" />
        <mxCell id="MS3hucVQkS1xz92XcRkH-2" value="App de Melina" style="strokeWidth=1;shadow=0;dashed=0;align=center;html=1;shape=mxgraph.mockup.containers.window;align=left;verticalAlign=top;spacingLeft=8;strokeColor2=#008cff;strokeColor3=#c4c4c4;fontColor=#000000;mainText=;fontSize=17;labelBackgroundColor=none;" vertex="1" parent="1">
          <mxGeometry x="20" width="1070" height="670" as="geometry" />
        </mxCell>
        <mxCell id="UYhLNDBsdcXB9qeAo692-6" value="" style="strokeWidth=1;shadow=0;dashed=0;align=center;html=1;shape=mxgraph.mockup.containers.marginRect2;rectMarginTop=32;strokeColor=#666666;gradientColor=none;" parent="1" vertex="1">
          <mxGeometry x="30" y="70" width="1040" height="560" as="geometry" />
        </mxCell>
        <mxCell id="UYhLNDBsdcXB9qeAo692-7" value="Datos" style="strokeColor=inherit;fillColor=#66B2FF;gradientColor=inherit;strokeWidth=1;shadow=0;dashed=0;align=center;html=1;shape=mxgraph.mockup.containers.rrect;rSize=0;fontSize=17;fontColor=#000000;gradientColor=none;" parent="UYhLNDBsdcXB9qeAo692-6" vertex="1">
          <mxGeometry width="80" height="25" relative="1" as="geometry">
            <mxPoint x="10" as="offset" />
          </mxGeometry>
        </mxCell>
        <mxCell id="UYhLNDBsdcXB9qeAo692-8" value="Licencia" style="strokeWidth=1;shadow=0;dashed=0;align=center;html=1;shape=mxgraph.mockup.containers.rrect;rSize=0;fontSize=17;fontColor=#000000;strokeColor=#000000;fillColor=#FFFFFF;" parent="UYhLNDBsdcXB9qeAo692-6" vertex="1">
          <mxGeometry width="90" height="25" relative="1" as="geometry">
            <mxPoint x="90" as="offset" />
          </mxGeometry>
        </mxCell>
        <mxCell id="UYhLNDBsdcXB9qeAo692-9" value="Captura de foto" style="strokeColor=inherit;fillColor=inherit;gradientColor=inherit;strokeWidth=1;shadow=0;dashed=0;align=center;html=1;shape=mxgraph.mockup.containers.rrect;rSize=0;fontSize=17;fontColor=#000000;gradientColor=none;" parent="UYhLNDBsdcXB9qeAo692-6" vertex="1">
          <mxGeometry width="160" height="25" relative="1" as="geometry">
            <mxPoint x="180" as="offset" />
          </mxGeometry>
        </mxCell>
        <mxCell id="UYhLNDBsdcXB9qeAo692-10" value="" style="strokeWidth=1;shadow=0;dashed=0;align=center;html=1;shape=mxgraph.mockup.containers.topButton;rSize=5;strokeColor=#008cff;fillColor=#008cff;gradientColor=none;resizeWidth=1;movable=0;deletable=1;" parent="UYhLNDBsdcXB9qeAo692-6" vertex="1">
          <mxGeometry width="1040" height="7" relative="1" as="geometry">
            <mxPoint y="25" as="offset" />
          </mxGeometry>
        </mxCell>
        <mxCell id="MS3hucVQkS1xz92XcRkH-1" value="Nombre" style="text;html=1;strokeColor=none;fillColor=none;align=center;verticalAlign=middle;whiteSpace=wrap;rounded=0;fontColor=#000000;fontSize=19;" vertex="1" parent="UYhLNDBsdcXB9qeAo692-6">
          <mxGeometry x="40" y="60" width="40" height="20" as="geometry" />
        </mxCell>
        <mxCell id="MS3hucVQkS1xz92XcRkH-5" value="Melina" style="strokeWidth=1;shadow=0;dashed=0;align=center;html=1;shape=mxgraph.mockup.forms.pwField;strokeColor=#999999;mainText=;align=left;fontColor=#000000;fontSize=17;spacingLeft=3;" vertex="1" parent="UYhLNDBsdcXB9qeAo692-6">
          <mxGeometry x="110" y="55" width="190" height="30" as="geometry" />
        </mxCell>
        <mxCell id="MS3hucVQkS1xz92XcRkH-6" value="Apellido Paterno" style="text;html=1;strokeColor=none;fillColor=none;align=center;verticalAlign=middle;whiteSpace=wrap;rounded=0;fontColor=#000000;fontSize=19;" vertex="1" parent="UYhLNDBsdcXB9qeAo692-6">
          <mxGeometry x="310" y="60" width="160" height="20" as="geometry" />
        </mxCell>
        <mxCell id="MS3hucVQkS1xz92XcRkH-7" value="García" style="strokeWidth=1;shadow=0;dashed=0;align=center;html=1;shape=mxgraph.mockup.forms.pwField;strokeColor=#999999;mainText=;align=left;fontColor=#000000;fontSize=17;spacingLeft=3;" vertex="1" parent="UYhLNDBsdcXB9qeAo692-6">
          <mxGeometry x="470" y="55" width="190" height="30" as="geometry" />
        </mxCell>
        <mxCell id="MS3hucVQkS1xz92XcRkH-8" value="Apellido Materno" style="text;html=1;strokeColor=none;fillColor=none;align=center;verticalAlign=middle;whiteSpace=wrap;rounded=0;fontColor=#000000;fontSize=19;" vertex="1" parent="UYhLNDBsdcXB9qeAo692-6">
          <mxGeometry x="670" y="60" width="160" height="20" as="geometry" />
        </mxCell>
        <mxCell id="MS3hucVQkS1xz92XcRkH-9" value="Jiménez" style="strokeWidth=1;shadow=0;dashed=0;align=center;html=1;shape=mxgraph.mockup.forms.pwField;strokeColor=#999999;mainText=;align=left;fontColor=#000000;fontSize=17;spacingLeft=3;" vertex="1" parent="UYhLNDBsdcXB9qeAo692-6">
          <mxGeometry x="830" y="55" width="190" height="30" as="geometry" />
        </mxCell>
        <mxCell id="MS3hucVQkS1xz92XcRkH-10" value="Edad" style="text;html=1;strokeColor=none;fillColor=none;align=center;verticalAlign=middle;whiteSpace=wrap;rounded=0;fontColor=#000000;fontSize=19;" vertex="1" parent="UYhLNDBsdcXB9qeAo692-6">
          <mxGeometry x="50" y="130" width="40" height="20" as="geometry" />
        </mxCell>
        <mxCell id="MS3hucVQkS1xz92XcRkH-11" value="15" style="strokeWidth=1;shadow=0;dashed=0;align=center;html=1;shape=mxgraph.mockup.forms.pwField;strokeColor=#999999;mainText=;align=left;fontColor=#000000;fontSize=17;spacingLeft=3;" vertex="1" parent="UYhLNDBsdcXB9qeAo692-6">
          <mxGeometry x="110" y="125" width="140" height="30" as="geometry" />
        </mxCell>
        <mxCell id="MS3hucVQkS1xz92XcRkH-12" value="Fecha de nacimiento" style="text;html=1;strokeColor=none;fillColor=none;align=center;verticalAlign=middle;whiteSpace=wrap;rounded=0;fontColor=#000000;fontSize=19;" vertex="1" parent="UYhLNDBsdcXB9qeAo692-6">
          <mxGeometry x="250" y="130" width="260" height="20" as="geometry" />
        </mxCell>
        <mxCell id="MS3hucVQkS1xz92XcRkH-13" value="12/12/2000" style="strokeWidth=1;shadow=0;dashed=0;align=center;html=1;shape=mxgraph.mockup.forms.pwField;strokeColor=#999999;mainText=;align=left;fontColor=#000000;fontSize=17;spacingLeft=3;" vertex="1" parent="UYhLNDBsdcXB9qeAo692-6">
          <mxGeometry x="482.5" y="125" width="177.5" height="30" as="geometry" />
        </mxCell>
        <mxCell id="MS3hucVQkS1xz92XcRkH-14" value="CURP" style="text;html=1;strokeColor=none;fillColor=none;align=center;verticalAlign=middle;whiteSpace=wrap;rounded=0;fontColor=#000000;fontSize=19;" vertex="1" parent="UYhLNDBsdcXB9qeAo692-6">
          <mxGeometry x="35" y="200" width="70" height="20" as="geometry" />
        </mxCell>
        <mxCell id="MS3hucVQkS1xz92XcRkH-15" value="GAJM201212MOCRML01" style="strokeWidth=1;shadow=0;dashed=0;align=center;html=1;shape=mxgraph.mockup.forms.pwField;strokeColor=#999999;mainText=;align=left;fontColor=#000000;fontSize=17;spacingLeft=3;" vertex="1" parent="UYhLNDBsdcXB9qeAo692-6">
          <mxGeometry x="110" y="195" width="210" height="30" as="geometry" />
        </mxCell>
        <mxCell id="MS3hucVQkS1xz92XcRkH-16" value="Sexo" style="text;html=1;strokeColor=none;fillColor=none;align=center;verticalAlign=middle;whiteSpace=wrap;rounded=0;fontColor=#000000;fontSize=19;" vertex="1" parent="UYhLNDBsdcXB9qeAo692-6">
          <mxGeometry x="400" y="200" width="70" height="20" as="geometry" />
        </mxCell>
        <mxCell id="MS3hucVQkS1xz92XcRkH-17" value="Hombre" style="shape=ellipse;fillColor=#eeeeee;strokeColor=#999999;gradientColor=#cccccc;html=1;align=left;spacingLeft=4;fontSize=17;fontColor=#000000;labelPosition=right;shadow=0;" vertex="1" parent="UYhLNDBsdcXB9qeAo692-6">
          <mxGeometry x="482.5" y="200" width="15" height="15" as="geometry" />
        </mxCell>
        <mxCell id="MS3hucVQkS1xz92XcRkH-19" value="Mujer" style="shape=ellipse;fillColor=#eeeeee;strokeColor=#999999;gradientColor=#cccccc;html=1;align=left;spacingLeft=4;fontSize=17;fontColor=#000000;labelPosition=right;shadow=0;" vertex="1" parent="UYhLNDBsdcXB9qeAo692-6">
          <mxGeometry x="590" y="200" width="15" height="15" as="geometry" />
        </mxCell>
        <mxCell id="MS3hucVQkS1xz92XcRkH-22" value="Usuario" style="text;html=1;strokeColor=none;fillColor=none;align=center;verticalAlign=middle;whiteSpace=wrap;rounded=0;fontColor=#000000;fontSize=19;" vertex="1" parent="UYhLNDBsdcXB9qeAo692-6">
          <mxGeometry x="30" y="270" width="70" height="20" as="geometry" />
        </mxCell>
        <mxCell id="MS3hucVQkS1xz92XcRkH-23" value="melys" style="strokeWidth=1;shadow=0;dashed=0;align=center;html=1;shape=mxgraph.mockup.forms.pwField;strokeColor=#999999;mainText=;align=left;fontColor=#000000;fontSize=17;spacingLeft=3;" vertex="1" parent="UYhLNDBsdcXB9qeAo692-6">
          <mxGeometry x="110" y="265" width="210" height="30" as="geometry" />
        </mxCell>
        <mxCell id="MS3hucVQkS1xz92XcRkH-24" value="Contraseña" style="text;html=1;strokeColor=none;fillColor=none;align=center;verticalAlign=middle;whiteSpace=wrap;rounded=0;fontColor=#000000;fontSize=19;" vertex="1" parent="UYhLNDBsdcXB9qeAo692-6">
          <mxGeometry x="360" y="270" width="120" height="20" as="geometry" />
        </mxCell>
        <mxCell id="MS3hucVQkS1xz92XcRkH-25" value="********" style="strokeWidth=1;shadow=0;dashed=0;align=center;html=1;shape=mxgraph.mockup.forms.pwField;strokeColor=#999999;mainText=;align=left;fontColor=#666666;fontSize=17;spacingLeft=3;" vertex="1" parent="UYhLNDBsdcXB9qeAo692-6">
          <mxGeometry x="482.5" y="265" width="177.5" height="30" as="geometry" />
        </mxCell>
        <mxCell id="UYhLNDBsdcXB9qeAo692-14" value="" style="strokeWidth=1;shadow=0;dashed=0;align=center;html=1;shape=mxgraph.mockup.forms.rrect;rSize=0;strokeColor=#999999;fillColor=#CCFFFF;fontColor=#000000;" parent="1" vertex="1">
          <mxGeometry x="20" y="30" width="1030" height="30" as="geometry" />
        </mxCell>
        <mxCell id="UYhLNDBsdcXB9qeAo692-15" value="Inicio" style="strokeColor=inherit;fillColor=inherit;gradientColor=inherit;strokeWidth=1;shadow=0;dashed=0;align=center;html=1;shape=mxgraph.mockup.forms.rrect;rSize=0;fontSize=17;fontColor=#000000;" parent="UYhLNDBsdcXB9qeAo692-14" vertex="1">
          <mxGeometry width="130" height="30" as="geometry" />
        </mxCell>
        <mxCell id="UYhLNDBsdcXB9qeAo692-16" value="Opciones" style="strokeColor=inherit;fillColor=inherit;gradientColor=inherit;strokeWidth=1;shadow=0;dashed=0;align=center;html=1;shape=mxgraph.mockup.forms.rrect;rSize=0;fontSize=17;fontColor=#000000;" parent="UYhLNDBsdcXB9qeAo692-14" vertex="1">
          <mxGeometry x="130" width="140" height="30" as="geometry" />
        </mxCell>
        <mxCell id="UYhLNDBsdcXB9qeAo692-17" value="Acerca de" style="strokeColor=inherit;fillColor=inherit;gradientColor=inherit;strokeWidth=1;shadow=0;dashed=0;align=center;html=1;shape=mxgraph.mockup.forms.rrect;rSize=0;fontSize=17;fontColor=#000000;" parent="UYhLNDBsdcXB9qeAo692-14" vertex="1">
          <mxGeometry x="270" width="110" height="30" as="geometry" />
        </mxCell>
      </root>
    </mxGraphModel>
  </diagram>
</mxfile>
